<svg width="20" height="21" viewBox="0 0 20 21" fill="none" xmlns="http://www.w3.org/2000/svg">
<path fill-rule="evenodd" clip-rule="evenodd" d="M0 10.1778C0 4.6638 4.486 0.177734 10 0.177734C15.514 0.177734 20 4.6638 20 10.1778C20 15.6918 15.514 20.1777 10 20.1777C4.486 20.1777 0 15.6918 0 10.1778ZM1.81818 10.1778C1.81818 14.6892 5.48848 18.3596 10 18.3596C14.5115 18.3596 18.1818 14.6892 18.1818 10.1778C18.1818 5.66634 14.5115 1.99592 10 1.99592C5.48848 1.99592 1.81818 5.66634 1.81818 10.1778ZM10 4.44552C9.33092 4.44552 8.78661 4.99009 8.78661 5.65945C8.78661 6.32821 9.33092 6.87229 10 6.87229C10.6691 6.87229 11.2134 6.32821 11.2134 5.65945C11.2134 4.99009 10.6691 4.44552 10 4.44552ZM9.12134 9.62334C9.12134 9.12076 9.53348 8.7133 10.0418 8.7133C10.5502 8.7133 10.9623 9.12076 10.9623 9.62334V15.0836C10.9623 15.5862 10.5502 15.9936 10.0418 15.9936C9.53348 15.9936 9.12134 15.5862 9.12134 15.0836V9.62334Z" fill="#474747"/>
</svg>
