<svg width="58" height="56" viewBox="0 0 58 56" fill="none" xmlns="http://www.w3.org/2000/svg">
<path d="M55.5085 51.6709C55.231 51.6154 55.231 51.6154 55.231 51.2824C55.231 48.1743 55.231 45.0662 55.231 42.0136C55.231 35.6309 55.231 29.0817 55.2865 22.5881C55.2865 21.145 54.787 19.8685 53.8434 18.925C52.9554 18.0369 51.6789 17.5929 50.2913 17.6484C48.1823 17.7039 46.0732 17.7039 44.0197 17.7039C42.8541 17.7039 41.6331 17.7039 40.4121 17.7039C40.2456 17.7039 40.1901 17.7039 40.1901 17.7039C40.1901 17.7039 40.1901 17.6484 40.1901 17.4819C40.1901 13.0418 40.1901 8.54617 40.1901 4.60556C40.1901 2.94052 39.4686 1.55298 38.2475 0.720455C37.0265 -0.112068 35.4724 -0.223075 33.9739 0.387442C27.0362 3.16252 20.0985 5.9931 13.2163 8.87918L6.83363 11.4878C4.66907 12.3758 3.78105 13.7633 3.78105 16.0944V51.1714C3.78105 51.2269 3.78105 51.2269 3.78105 51.2824C3.78105 51.3934 3.78105 51.5044 3.78105 51.6154C3.22603 51.6154 2.67101 51.6154 2.1715 51.6154C1.22797 51.6709 0.506454 52.1149 0.173445 53.0029C-0.104063 53.6689 -0.0485681 54.3905 0.339943 55.001C0.783955 55.6115 1.50548 56 2.338 56C8.88719 56 15.4364 56 21.9855 56H54.454H54.6205C54.676 56 54.7315 56 54.787 56C54.8425 56 54.9535 56 55.009 56C56.119 55.9445 57.007 55.112 57.118 54.0574C57.2845 52.9474 56.563 51.8929 55.5085 51.6709ZM40.1901 39.9601V36.7965V33.6329C40.1901 29.9143 40.1901 26.0847 40.1901 22.3661C40.1901 22.1441 40.1901 22.0886 40.1901 22.0886C40.1901 22.0886 40.2456 22.0331 40.4676 22.0886C42.9651 22.0886 45.4627 22.0886 47.9048 22.0886C48.6818 22.0886 49.4588 22.0886 50.2358 22.0886C50.4578 22.0886 50.7354 22.0886 50.8464 22.0886C50.8464 22.1996 50.8464 22.3661 50.8464 22.5326V27.5832C50.8464 35.3534 50.8464 43.4011 50.8464 51.2824C50.8464 51.5044 50.8464 51.5599 50.8464 51.5599C50.8464 51.5599 50.7909 51.6154 50.5689 51.6154C48.9593 51.6154 47.2943 51.6154 45.5737 51.6154C43.9087 51.6154 42.2436 51.6154 40.4676 51.6154C40.3011 51.6154 40.2456 51.6154 40.2456 51.6154C40.2456 51.6154 40.1901 51.5599 40.2456 51.3379C40.1901 47.5083 40.1901 43.6787 40.1901 39.9601ZM35.8054 51.5599C35.8054 51.5599 35.7499 51.6154 35.5279 51.6154C31.0323 51.6154 26.5367 51.6154 21.9855 51.6154C17.4899 51.6154 12.9943 51.6154 8.49868 51.6154C8.27667 51.6154 8.22117 51.6154 8.22117 51.6154C8.22117 51.6154 8.16567 51.5599 8.16567 51.3379C8.16567 39.7935 8.16567 27.9717 8.16567 16.1499C8.16567 15.8169 8.22117 15.7059 8.60968 15.5394C15.9359 12.5423 23.3731 9.4897 30.5883 6.49261L35.4724 4.49456C35.5834 4.43906 35.7499 4.38356 35.8609 4.32806C35.8609 4.43906 35.8609 4.66106 35.8609 4.77207V22.1996V32.3563C35.8609 38.5725 35.8609 45.0107 35.8609 51.2824C35.8054 51.5044 35.8054 51.5599 35.8054 51.5599Z" fill="white"/>
<path d="M26.4812 19.5355C23.4841 19.5355 20.4315 19.5355 17.4344 19.5355C16.0469 19.5355 15.0479 20.4235 15.0479 21.7001C15.0479 22.3106 15.2699 22.8101 15.6584 23.2541C16.1024 23.6981 16.7129 23.9201 17.4344 23.9201C18.4889 23.9201 19.5435 23.9201 20.598 23.9201H21.9855H23.3731C23.8171 23.9201 24.2611 23.9201 24.7606 23.9201C25.3711 23.9201 25.9817 23.9201 26.5367 23.9201C27.9242 23.9201 28.9232 23.0321 28.9232 21.7556C28.9232 21.1451 28.7012 20.6456 28.3127 20.2015C27.8687 19.813 27.2027 19.5355 26.4812 19.5355Z" fill="white"/>
<path d="M26.5366 27.0837C25.4821 27.0837 24.4275 27.0837 23.4285 27.0837H22.0965H20.7089C19.6544 27.0837 18.5999 27.0837 17.4898 27.0837C16.7683 27.0837 16.1578 27.3057 15.7138 27.7498C15.3253 28.1383 15.1033 28.6933 15.1033 29.3038C15.1033 30.5803 16.1023 31.4684 17.4898 31.4684C18.9884 31.4684 20.4869 31.4684 21.9855 31.4684C23.484 31.4684 25.0381 31.4684 26.5366 31.4684C27.2581 31.4684 27.8686 31.2464 28.3126 30.8023C28.7011 30.4138 28.9232 29.8588 28.9232 29.2483C28.8677 28.0273 27.8686 27.0837 26.5366 27.0837Z" fill="white"/>
<path d="M26.4812 34.632C23.4841 34.632 20.4315 34.632 17.4344 34.632C16.0469 34.632 15.0479 35.52 15.0479 36.7965C15.0479 37.407 15.2699 37.9066 15.6584 38.3506C16.1024 38.7946 16.7129 39.0166 17.4344 39.0166C18.4889 39.0166 19.5435 39.0166 20.598 39.0166H21.9855H23.3731C23.8171 39.0166 24.3166 39.0166 24.7606 39.0166C25.3711 39.0166 25.9262 39.0166 26.5367 39.0166C27.9242 39.0166 28.9232 38.1286 28.9232 36.852C28.9232 36.2415 28.7012 35.742 28.3127 35.298C27.8687 34.854 27.2027 34.632 26.4812 34.632Z" fill="white"/>
<path d="M26.5366 42.1801C25.4821 42.1801 24.4275 42.1801 23.4285 42.1801H22.0965H20.7089C19.6544 42.1801 18.5444 42.1801 17.4898 42.1801C16.7683 42.1801 16.1578 42.4021 15.7138 42.8461C15.3253 43.2346 15.1033 43.7896 15.1033 44.4001C15.1033 45.6767 16.1023 46.5647 17.4898 46.5647C18.9884 46.5647 20.4869 46.5647 22.041 46.5647C23.5395 46.5647 25.0381 46.5647 26.5921 46.5647C27.3136 46.5647 27.9241 46.3427 28.3681 45.8987C28.7567 45.5101 28.9787 44.9551 28.9787 44.3446C28.8677 43.0681 27.8686 42.1801 26.5366 42.1801Z" fill="white"/>
</svg>
