<svg width="22" height="17" viewBox="0 0 22 17" fill="none" xmlns="http://www.w3.org/2000/svg">
<path fill-rule="evenodd" clip-rule="evenodd" d="M21.0495 12.4907C20.9918 12.5166 20.997 12.5789 20.9813 12.6204C20.7767 13.1808 20.3046 13.5232 19.7013 13.5284C19.0718 13.5336 18.4476 13.5336 17.8181 13.5284C17.6712 13.5284 17.6292 13.5699 17.6292 13.71C17.6344 14.0058 17.5505 14.2808 17.3512 14.4987C16.6587 15.2459 15.8981 15.9048 14.9538 16.3407C14.125 16.7246 13.3067 16.7817 12.4201 16.5638C10.9041 16.1954 9.42476 15.7544 8.02938 15.0539C5.47467 13.7671 3.61765 11.8265 2.41112 9.26328C1.71342 7.7793 1.25704 6.2175 0.973766 4.609C0.916062 4.29249 0.958029 3.97598 1.04721 3.66984C1.35671 2.59059 1.96522 1.69294 2.76783 0.914634C2.88324 0.800483 2.99865 0.686331 3.11406 0.572179C3.33438 0.359442 3.60192 0.240101 3.90093 0.224535C4.32584 0.198592 4.75075 0.177837 5.17566 0.177837C5.61106 0.172648 5.96253 0.364631 6.20384 0.722652C6.29301 0.857558 6.38744 0.888691 6.53432 0.888691C10.8044 0.883502 15.0745 0.893879 19.3446 0.878313C20.1892 0.873125 20.7924 1.12737 21.0495 1.96794C21.0495 5.47551 21.0495 8.98308 21.0495 12.4907ZM19.6032 3.04948C18.7883 3.64519 18.015 4.20954 17.2416 4.7739C15.7312 5.88171 14.2157 6.9843 12.7053 8.09211C12.3731 8.33248 12.015 8.43699 11.6101 8.35339C11.4025 8.31158 11.2208 8.2123 11.0548 8.09211C9.87137 7.22467 8.68797 6.36246 7.50458 5.49502C7.4371 5.44799 7.3852 5.36961 7.2762 5.45845C6.80389 5.81378 6.32638 6.16389 5.84368 6.49832C5.71911 6.58193 5.71392 6.66032 5.76063 6.78573C6.13433 7.90399 6.75717 8.87071 7.55129 9.7277C8.50112 10.7519 9.60666 11.5462 10.9302 12.0113C11.0963 12.0687 11.1741 12.0374 11.2728 11.8963C11.579 11.4469 11.9008 11.0027 12.2226 10.5638C12.5859 10.0674 13.1776 9.90014 13.7433 10.1457C14.7555 10.5899 15.7624 11.0445 16.7745 11.4939C17.1015 11.6402 17.3402 11.8858 17.4492 12.236C17.4908 12.3666 17.5582 12.3823 17.6724 12.3823C18.233 12.377 18.7987 12.3718 19.3593 12.3823C19.5513 12.3875 19.6136 12.3405 19.6136 12.1367C19.6084 9.18424 19.6084 6.23182 19.6084 3.2794C19.6032 3.21669 19.6032 3.15399 19.6032 3.04948ZM15.5453 14.3849C14.3614 13.9509 13.2506 13.4333 12.1814 12.8268C12.1032 12.7797 12.0615 12.8006 11.9989 12.8581C11.6129 13.2241 11.1696 13.3078 10.6638 13.1457C9.07309 12.6333 7.7484 11.7026 6.61668 10.4895C5.64663 9.44902 4.89562 8.27256 4.4784 6.89741C4.33237 6.4216 4.42625 5.99285 4.76524 5.63206C4.8539 5.53795 4.83826 5.4752 4.78089 5.38109C4.2072 4.36672 3.71696 3.31052 3.31017 2.21772C3.29452 2.17589 3.29452 2.11314 3.22151 2.09223C2.69476 2.66739 2.33491 3.33666 2.15758 4.10005C2.13672 4.1994 2.14194 4.3092 2.15758 4.40855C2.41314 5.76278 2.77299 7.08565 3.3206 8.35099C4.33237 10.6935 5.9074 12.5287 8.1552 13.7627C9.57376 14.5418 11.0966 15.0333 12.6717 15.3679C12.9637 15.4307 13.2558 15.5457 13.553 15.4673C14.2988 15.2895 14.956 14.9339 15.5453 14.3849ZM6.93007 2.09223C7.1976 2.70193 7.45464 3.28513 7.70644 3.87363C7.75365 3.97966 7.8166 4.05919 7.91102 4.12811C9.2382 5.09833 10.5654 6.07386 11.8926 7.05469C12.0185 7.14482 12.0971 7.13421 12.2126 7.04939C14.3948 5.44295 16.577 3.84181 18.7593 2.23538C18.8065 2.19827 18.8747 2.17706 18.8957 2.09223C14.9089 2.09223 10.9378 2.09223 6.93007 2.09223ZM4.94998 1.61884C4.87336 1.61884 4.80222 1.61884 4.7256 1.61884C4.5669 1.61884 4.49028 1.63421 4.5669 1.82894C4.93904 2.76156 5.36043 3.67369 5.86391 4.54995C5.946 4.69343 5.99525 4.92402 6.13206 4.95989C6.29077 4.99576 6.42759 4.78567 6.58629 4.70368C6.70669 4.64218 6.71216 4.57044 6.65744 4.45771C6.24699 3.60195 5.84202 2.74619 5.43704 1.89043C5.30023 1.60347 5.30023 1.60347 4.94998 1.61884ZM16.2562 12.9567C16.2562 12.9019 16.246 12.8471 16.2562 12.7923C16.2868 12.6278 16.2155 12.5566 16.0779 12.4908C15.2932 12.1235 14.5136 11.7453 13.7289 11.378C13.5812 11.3067 13.413 11.1423 13.2806 11.1971C13.143 11.2574 13.0716 11.4766 12.9646 11.6137C12.878 11.7233 12.9035 11.7727 13.0156 11.8384C13.9328 12.3811 14.8805 12.8526 15.8639 13.2473C16.2409 13.4008 16.2409 13.4008 16.2562 12.9567Z" fill="#474747"/>
</svg>
