<?xml version="1.0" standalone="no"?>
<!DOCTYPE svg PUBLIC "-//W3C//DTD SVG 20010904//EN"
 "http://www.w3.org/TR/2001/REC-SVG-20010904/DTD/svg10.dtd">
<svg version="1.0" xmlns="http://www.w3.org/2000/svg"
 width="512.000000pt" height="512.000000pt" viewBox="0 0 512.000000 512.000000"
 preserveAspectRatio="xMidYMid meet">
<metadata>
Created by potrace 1.16, written by Peter Selinger 2001-2019
</metadata>
<g transform="translate(0.000000,512.000000) scale(0.100000,-0.100000)"
fill="#000000" stroke="none">
<path d="M2345 4349 c-391 -40 -757 -186 -1077 -430 -139 -107 -1211 -1178
-1243 -1243 -35 -69 -35 -163 0 -232 19 -37 156 -180 582 -604 307 -306 590
-581 628 -612 518 -415 1191 -562 1840 -404 285 70 573 214 813 407 42 35 326
310 630 613 610 608 602 599 602 716 0 119 8 109 -603 716 -551 548 -634 625
-796 733 -398 267 -896 389 -1376 340z m380 -519 c204 -24 357 -69 540 -160
214 -107 266 -151 768 -650 l458 -455 -458 -456 c-263 -262 -490 -480 -534
-512 -280 -205 -593 -307 -939 -307 -364 0 -701 119 -987 347 -43 34 -271 256
-508 493 l-430 430 440 441 c242 242 476 469 521 504 195 154 426 259 673 305
167 31 305 37 456 20z"/>
<path d="M2403 3446 c-101 -19 -165 -42 -264 -92 -213 -110 -370 -303 -445
-550 -25 -80 -28 -104 -28 -244 0 -140 3 -164 28 -244 50 -164 117 -278 230
-392 114 -113 228 -181 392 -230 80 -24 105 -27 239 -28 180 0 257 18 410 93
115 57 211 132 291 229 67 81 146 238 176 347 31 115 30 336 0 450 -86 316
-335 565 -647 646 -103 26 -284 34 -382 15z m229 -517 c112 -24 212 -99 261
-196 99 -195 19 -421 -181 -516 -59 -28 -77 -32 -152 -32 -75 0 -93 4 -152 32
-85 40 -151 106 -191 191 -28 59 -32 77 -32 152 0 75 4 93 32 152 63 134 192
221 335 227 15 1 51 -4 80 -10z"/>
</g>
</svg>
