<svg width="20" height="21" viewBox="0 0 20 21" fill="none" xmlns="http://www.w3.org/2000/svg">
<path fill-rule="evenodd" clip-rule="evenodd" d="M0 10.1777C0 4.65027 4.47328 0.177734 10 0.177734C15.5275 0.177734 20 4.65102 20 10.1777C20 15.7052 15.5267 20.1777 10 20.1777C4.47254 20.1777 0 15.7045 0 10.1777ZM1.5625 10.1777C1.5625 14.8415 5.33684 18.6152 10 18.6152C14.6638 18.6152 18.4375 14.8409 18.4375 10.1777C18.4375 5.51395 14.6632 1.74023 10 1.74023C5.33621 1.74023 1.5625 5.51457 1.5625 10.1777ZM10.9766 14.9629C10.9766 15.5022 10.5393 15.9395 10 15.9395C9.46066 15.9395 9.02344 15.5022 9.02344 14.9629C9.02344 14.4235 9.46066 13.9863 10 13.9863C10.5393 13.9863 10.9766 14.4235 10.9766 14.9629ZM6.875 8.32227C6.875 6.59914 8.27687 5.19727 10 5.19727C11.7231 5.19727 13.125 6.59914 13.125 8.32227C13.125 9.77574 12.1276 11.0006 10.7812 11.3484V12.6191C10.7812 13.0506 10.4315 13.4004 10 13.4004C9.56852 13.4004 9.21875 13.0506 9.21875 12.6191V10.666C9.21875 10.2345 9.56852 9.88477 10 9.88477C10.8616 9.88477 11.5625 9.18383 11.5625 8.32227C11.5625 7.4607 10.8616 6.75977 10 6.75977C9.13844 6.75977 8.4375 7.4607 8.4375 8.32227C8.4375 8.75375 8.08773 9.10352 7.65625 9.10352C7.22477 9.10352 6.875 8.75375 6.875 8.32227Z" fill="#474747"/>
</svg>
