<svg width="54" height="56" viewBox="0 0 54 56" fill="none" xmlns="http://www.w3.org/2000/svg">
<path d="M38.9853 35.8624C40.048 35.5828 40.7192 34.8556 40.943 33.7929C41.1667 32.7302 40.7752 31.8353 39.7684 31.22C38.3701 30.3251 36.8039 29.6539 35.1819 29.0386C43.2362 22.9978 43.6278 11.7553 37.3633 5.09927C31.2106 -1.38896 21.2546 -1.72456 14.7663 4.3162C11.6341 7.22472 9.84422 10.8604 9.62048 15.1113C9.34082 20.9842 11.69 25.6267 16.3324 29.2064C16.1646 29.2623 16.1087 29.3183 15.9969 29.3742C11.3544 31.3319 7.55096 34.4082 4.69838 38.5472C1.56613 43.0219 0.055933 47.944 0 53.3695C0 54.6 0.559331 55.439 1.62206 55.8305C3.41192 56.4458 5.08991 55.3271 5.08991 53.4254C5.08991 50.2932 5.76111 47.3287 7.04756 44.4761C10.9069 36.0862 20.3037 31.1081 29.4208 32.6743C32.1056 33.1217 34.6225 34.0166 36.9158 35.415C37.5311 35.7506 38.2023 36.0302 38.9853 35.8624ZM25.6733 27.025C19.5766 27.025 14.6545 22.1588 14.6545 16.0621C14.6545 9.96544 19.5206 5.04333 25.6173 5.04333C31.714 5.04333 36.6361 9.90951 36.6361 16.0062C36.6921 22.1029 31.8259 27.025 25.6733 27.025Z" fill="white"/>
<path d="M51.2905 43.0778C49.8363 43.0778 48.382 43.0778 46.9278 43.0778C46.4803 43.0778 46.3125 43.0219 46.3125 42.4626C46.3684 41.0083 46.3125 39.5541 46.3125 38.1557C46.3125 36.5896 45.2498 35.4709 43.7955 35.4709C42.3413 35.4709 41.2785 36.5896 41.2785 38.1557C41.2785 39.6659 41.2785 41.1202 41.2785 42.6304C41.2785 42.966 41.2226 43.1338 40.8311 43.0778C40.1599 43.0219 39.5446 43.0778 38.8734 43.0778C37.7548 43.1338 36.6361 42.966 35.5734 43.1897C34.2869 43.4134 33.4479 44.588 33.5598 45.8745C33.6716 47.2169 34.6225 48.1677 35.9649 48.1677C36.748 48.1677 37.531 48.1677 38.3141 48.1677C39.0971 48.1677 39.8802 48.1677 40.6633 48.1677C41.1107 48.1677 41.2226 48.2237 41.2226 48.7271C41.1667 50.1813 41.2226 51.6915 41.2226 53.2017C41.2226 54.3763 41.7819 55.2153 42.7328 55.5509C44.4667 56.2221 46.2006 55.1034 46.2566 53.2017C46.3125 51.6915 46.2566 50.2373 46.2566 48.7271C46.2566 48.2796 46.3125 48.1677 46.8159 48.1677C48.3261 48.2237 49.8363 48.1677 51.4024 48.1677C52.6329 48.1677 53.5279 47.4406 53.8075 46.3779C54.1991 44.5321 53.0804 43.0778 51.2905 43.0778Z" fill="white"/>
</svg>
