<svg width="22" height="12" viewBox="0 0 22 12" fill="none" xmlns="http://www.w3.org/2000/svg">
<path fill-rule="evenodd" clip-rule="evenodd" d="M11.6491 4.00104C10.6991 1.31104 7.89912 -0.498963 4.76912 0.121037C2.47912 0.581037 0.619116 2.41104 0.139116 4.70104C-0.680884 8.57104 2.25912 12.001 5.99912 12.001C8.60912 12.001 10.8291 10.331 11.6491 8.00104H15.9991V10.001C15.9991 11.101 16.8991 12.001 17.9991 12.001C19.0991 12.001 19.9991 11.101 19.9991 10.001V8.00104C21.0991 8.00104 21.9991 7.10104 21.9991 6.00104C21.9991 4.90104 21.0991 4.00104 19.9991 4.00104H11.6491ZM5.99912 8.00104C4.89912 8.00104 3.99912 7.10104 3.99912 6.00104C3.99912 4.90104 4.89912 4.00104 5.99912 4.00104C7.09912 4.00104 7.99912 4.90104 7.99912 6.00104C7.99912 7.10104 7.09912 8.00104 5.99912 8.00104Z" fill="#DFE2E6"/>
<mask id="mask0_1_52" style="mask-type:luminance" maskUnits="userSpaceOnUse" x="0" y="-1" width="22" height="14">
<path fill-rule="evenodd" clip-rule="evenodd" d="M11.6491 4.00104C10.6991 1.31104 7.89912 -0.498963 4.76912 0.121037C2.47912 0.581037 0.619116 2.41104 0.139116 4.70104C-0.680884 8.57104 2.25912 12.001 5.99912 12.001C8.60912 12.001 10.8291 10.331 11.6491 8.00104H15.9991V10.001C15.9991 11.101 16.8991 12.001 17.9991 12.001C19.0991 12.001 19.9991 11.101 19.9991 10.001V8.00104C21.0991 8.00104 21.9991 7.10104 21.9991 6.00104C21.9991 4.90104 21.0991 4.00104 19.9991 4.00104H11.6491ZM5.99912 8.00104C4.89912 8.00104 3.99912 7.10104 3.99912 6.00104C3.99912 4.90104 4.89912 4.00104 5.99912 4.00104C7.09912 4.00104 7.99912 4.90104 7.99912 6.00104C7.99912 7.10104 7.09912 8.00104 5.99912 8.00104Z" fill="white"/>
</mask>
<g mask="url(#mask0_1_52)">
</g>
</svg>
