<svg width="324" height="243" viewBox="0 0 324 243" fill="none" xmlns="http://www.w3.org/2000/svg">
<path d="M324 213.137H0V213.299H324V213.137Z" fill="#EBEBEB"/>
<path d="M153.585 184.238H28.4566C26.4173 184.238 24.7578 182.578 24.7578 180.539V4.65093C24.7578 2.61168 26.4173 0.952148 28.4566 0.952148H153.585C155.623 0.952148 157.283 2.61168 157.283 4.65093V180.539C157.283 182.578 155.623 184.238 153.585 184.238ZM28.4566 1.1148C26.5061 1.1148 24.9198 2.7011 24.9198 4.65158V180.54C24.9198 182.49 26.5061 184.076 28.4566 184.076H153.585C155.535 184.076 157.121 182.49 157.121 180.54V4.65093C157.121 2.7011 155.535 1.11415 153.585 1.11415L28.4566 1.1148Z" fill="#EBEBEB"/>
<path d="M293.745 184.238H168.617C166.578 184.238 164.919 182.578 164.919 180.539V4.65093C164.919 2.61168 166.578 0.952148 168.617 0.952148H293.745C295.784 0.952148 297.443 2.61168 297.443 4.65093V180.539C297.444 182.578 295.784 184.238 293.745 184.238ZM168.617 1.1148C166.667 1.1148 165.081 2.7011 165.081 4.65158V180.54C165.081 182.49 166.667 184.076 168.617 184.076H293.745C295.695 184.076 297.281 182.49 297.281 180.54V4.65093C297.281 2.7011 295.695 1.11415 293.745 1.11415L168.617 1.1148Z" fill="#EBEBEB"/>
<path d="M50.0746 219.309H33.2285V219.471H50.0746V219.309Z" fill="#EBEBEB"/>
<path d="M123.236 217.55H94.0586V217.712H123.236V217.55Z" fill="#EBEBEB"/>
<path d="M90.1168 225.326H50.7236V225.488H90.1168V225.326Z" fill="#EBEBEB"/>
<path d="M290.772 224.238H278.308V224.4H290.772V224.238Z" fill="#EBEBEB"/>
<path d="M272.538 224.238H236.709V224.4H272.538V224.238Z" fill="#EBEBEB"/>
<path d="M214.821 221.502H166.566V221.664H214.821V221.502Z" fill="#EBEBEB"/>
<path d="M123.659 104.948L115.459 213.138H194.502L202.701 104.948H123.659ZM173.364 181.419C172.696 190.244 164.999 197.398 156.173 197.398C147.348 197.398 140.736 190.244 141.405 181.419L144.288 143.381C144.957 134.555 152.654 127.395 161.479 127.395C165.892 127.395 169.755 129.183 172.425 132.08C175.096 134.97 176.582 138.968 176.247 143.381L173.364 181.419Z" fill="#E6E6E6"/>
<path d="M219.591 213.137H104.331L104.995 206.039H220.255L219.591 213.137Z" fill="#E6E6E6"/>
<path d="M263.882 172.967H274.088C274.672 172.967 275.124 172.49 275.095 171.906L275.059 171.182C275.03 170.599 274.529 170.122 273.946 170.122H263.74C263.157 170.122 262.704 170.599 262.733 171.182L262.769 171.906C262.798 172.49 263.299 172.967 263.882 172.967Z" fill="#E0E0E0"/>
<path d="M246.814 172.967H257.02C257.603 172.967 258.056 172.49 258.027 171.906L257.991 171.182C257.962 170.599 257.461 170.122 256.877 170.122H246.671C246.088 170.122 245.635 170.599 245.664 171.182L245.701 171.906C245.731 172.49 246.231 172.967 246.814 172.967Z" fill="#E0E0E0"/>
<path d="M282.026 172.164H43.8056C41.0581 172.164 38.7194 169.937 38.5814 167.189L31.4106 24.0993C31.2733 21.3518 33.3883 19.1246 36.1358 19.1246H274.357C277.104 19.1246 279.443 21.3518 279.581 24.0993L286.752 167.189C286.889 169.937 284.773 172.164 282.026 172.164Z" fill="#E0E0E0"/>
<path d="M284.945 172.164H46.7246C43.9771 172.164 41.6384 169.937 41.5004 167.19L34.3296 24.0994C34.1916 21.3519 36.3073 19.1248 39.0548 19.1248H277.276C280.023 19.1248 282.362 21.3519 282.499 24.0994L289.67 167.19C289.808 169.937 287.692 172.164 284.945 172.164Z" fill="#E6E6E6"/>
<path d="M48.1179 162.179L41.4493 29.1112C41.3631 27.3894 42.6889 25.9937 44.4106 25.9937H272.608C274.33 25.9937 275.796 27.3894 275.882 29.1112L282.551 162.178C282.637 163.9 281.311 165.296 279.589 165.296H51.3916C49.6698 165.296 48.204 163.9 48.1179 162.179Z" fill="#F5F5F5"/>
<path d="M55.5095 32.8021C55.586 34.3249 54.4131 35.56 52.8897 35.56C51.3662 35.56 50.0702 34.3255 49.9938 32.8021C49.9173 31.2786 51.0902 30.0442 52.6136 30.0442C54.1364 30.0442 55.4331 31.2786 55.5095 32.8021Z" fill="white"/>
<path d="M67.9978 32.8021C68.0743 34.3249 66.9014 35.56 65.378 35.56C63.8545 35.56 62.5579 34.3255 62.4821 32.8021C62.4056 31.2786 63.5785 30.0442 65.1019 30.0442C66.6254 30.0442 67.9214 31.2786 67.9978 32.8021Z" fill="white"/>
<path d="M80.4861 32.8021C80.5626 34.3249 79.3897 35.56 77.8662 35.56C76.3434 35.56 75.0468 34.3255 74.9703 32.8021C74.8939 31.2786 76.0667 30.0442 77.5902 30.0442C79.113 30.0442 80.4096 31.2786 80.4861 32.8021Z" fill="white"/>
<g opacity="0.6">
<path d="M71.8467 165.296H104.733L134.8 25.9937H101.914L71.8467 165.296Z" fill="white"/>
<path d="M213.376 165.295H221.7L251.767 25.9935H243.443L213.376 165.295Z" fill="white"/>
<path d="M112.044 165.295H158.702L188.769 25.9935H142.111L112.044 165.295Z" fill="white"/>
</g>
<path d="M162 242.403C231.39 242.403 287.641 239.118 287.641 235.065C287.641 231.013 231.39 227.728 162 227.728C92.6113 227.728 36.3604 231.013 36.3604 235.065C36.3604 239.118 92.6113 242.403 162 242.403Z" fill="#F5F5F5"/>
<path d="M233.67 135.802C233.591 135.802 233.512 135.799 233.434 135.792C216.176 134.38 204.295 119.627 203.797 118.999C202.804 117.746 203.015 115.926 204.267 114.933C205.52 113.939 207.338 114.149 208.332 115.401C208.471 115.575 218.637 128.108 232.713 129.898C237.279 125.368 241.124 113.385 240.704 109.76C240.7 109.727 240.697 109.693 240.694 109.659C240.599 108.492 240.382 104.499 241.529 102.113C242.222 100.672 243.95 100.068 245.393 100.76C246.833 101.452 247.439 103.182 246.746 104.623C246.46 105.218 246.326 107.369 246.461 109.154C247.105 115.117 241.937 130.164 235.443 135.195C234.933 135.59 234.309 135.802 233.67 135.802Z" fill="#263238"/>
<path d="M96.4377 120.099C91.3004 120.099 76.7534 118.838 64.9676 105.664C64.0507 104.639 63.982 103.111 64.8017 102.007C69.4771 95.7171 77.7358 80.8558 79.0227 76.0133C78.4927 75.0951 77.5291 73.768 76.3381 73.2088C75.4153 72.7753 74.7881 71.8882 74.6883 70.8741L74.2191 66.1288C74.0617 64.5379 75.2242 63.1207 76.815 62.9633C78.4039 62.8058 79.823 63.9677 79.9805 65.5592L80.3064 68.8581C83.135 70.8864 84.5437 74.0518 84.7161 74.4594C84.9118 74.9215 84.985 75.4256 84.9267 75.9239C84.3305 81.0677 75.9901 95.9465 70.8592 103.471C82.8388 115.413 97.1583 114.324 97.7895 114.268C99.3712 114.139 100.784 115.302 100.928 116.892C101.071 118.481 99.9058 119.886 98.3176 120.033C98.1835 120.044 97.5186 120.099 96.4377 120.099Z" fill="#263238"/>
<path d="M189.777 234.974H182.02C181.115 234.974 180.263 234.551 179.715 233.83C179.168 233.11 178.989 232.174 179.231 231.303C181.259 224.021 182.254 218.094 182.999 208.813C180.254 195.886 177.668 184.052 177.642 183.933C177.3 182.371 178.289 180.828 179.851 180.487C181.415 180.147 182.955 181.135 183.296 182.696C183.323 182.817 185.968 194.918 188.749 208.023C188.807 208.295 188.825 208.574 188.803 208.851C188.148 217.183 187.306 222.946 185.773 229.185H189.776C191.375 229.185 192.671 230.481 192.671 232.08C192.671 233.678 191.375 234.974 189.777 234.974Z" fill="#263238"/>
<path d="M129.809 234.974H125.429C124.592 234.974 123.795 234.611 123.245 233.979C122.695 233.348 122.446 232.508 122.562 231.68C123.304 226.364 127.123 216.688 131.177 206.962C132.624 194.132 133.806 183.116 133.818 183.005C133.988 181.416 135.413 180.259 137.005 180.436C138.594 180.607 139.744 182.033 139.574 183.623C139.562 183.735 138.353 195 136.884 208.021C136.853 208.292 136.784 208.558 136.679 208.811C133.804 215.698 130.529 223.81 129.031 229.184H129.809C131.408 229.184 132.704 230.48 132.704 232.079C132.703 233.678 131.407 234.974 129.809 234.974Z" fill="#263238"/>
<path d="M131.912 37.258L98.1738 70.9961C96.476 108.395 96.6153 147.675 98.1738 188.405H209.735C207.527 135.848 207.317 85.2586 209.735 37.2573H131.912V37.258Z" fill="#F4E71A"/>
<path d="M209.906 188.984H98.3432C98.0328 188.984 97.7769 188.739 97.7652 188.428C96.1472 146.138 96.1472 106.62 97.7659 70.971C97.7723 70.8265 97.8326 70.6898 97.9343 70.5881L131.672 36.85C131.781 36.7411 131.928 36.6802 132.081 36.6802H209.906C210.064 36.6802 210.215 36.7456 210.324 36.8597C210.434 36.975 210.491 37.1292 210.483 37.2874C208.153 83.5189 208.153 132.942 210.483 188.382C210.49 188.538 210.432 188.692 210.323 188.806C210.213 188.919 210.063 188.984 209.906 188.984ZM98.9005 187.827H209.302C207.006 132.839 207.005 83.7626 209.297 37.8369H132.321L98.9109 71.2477C97.3116 106.649 97.3084 145.868 98.9005 187.827Z" fill="#263238"/>
<path d="M128.45 148.079H125.68L121.047 141.064V148.079H118.276V136.707H121.047L125.68 143.754V136.707H128.45V148.079Z" fill="#263238"/>
<path d="M135.836 148.192C134.767 148.192 133.784 147.944 132.888 147.447C132.002 146.95 131.295 146.259 130.766 145.374C130.247 144.477 129.988 143.473 129.988 142.36C129.988 141.248 130.247 140.249 130.766 139.363C131.295 138.478 132.002 137.787 132.888 137.29C133.784 136.793 134.767 136.545 135.836 136.545C136.906 136.545 137.883 136.793 138.769 137.29C139.665 137.787 140.367 138.478 140.875 139.363C141.393 140.249 141.652 141.248 141.652 142.36C141.652 143.473 141.393 144.477 140.875 145.374C140.356 146.259 139.654 146.95 138.769 147.447C137.883 147.944 136.906 148.192 135.836 148.192ZM135.836 145.665C136.744 145.665 137.467 145.363 138.007 144.758C138.558 144.153 138.833 143.354 138.833 142.36C138.833 141.356 138.558 140.557 138.007 139.963C137.467 139.358 136.744 139.056 135.836 139.056C134.918 139.056 134.184 139.353 133.633 139.947C133.093 140.541 132.823 141.345 132.823 142.36C132.823 143.365 133.093 144.169 133.633 144.774C134.184 145.368 134.918 145.665 135.836 145.665Z" fill="#263238"/>
<path d="M150.887 136.707C152.086 136.707 153.133 136.944 154.03 137.419C154.926 137.895 155.617 138.564 156.103 139.428C156.6 140.281 156.849 141.27 156.849 142.393C156.849 143.505 156.6 144.493 156.103 145.357C155.617 146.221 154.921 146.891 154.014 147.366C153.117 147.841 152.075 148.079 150.887 148.079H146.626V136.707H150.887ZM150.709 145.681C151.756 145.681 152.572 145.395 153.155 144.823C153.738 144.25 154.03 143.44 154.03 142.393C154.03 141.345 153.738 140.53 153.155 139.947C152.572 139.363 151.756 139.072 150.709 139.072H149.397V145.681H150.709Z" fill="#263238"/>
<path d="M165.476 146.07H161.232L160.551 148.079H157.651L161.766 136.707H164.974L169.089 148.079H166.156L165.476 146.07ZM164.763 143.932L163.354 139.768L161.961 143.932H164.763Z" fill="#263238"/>
<path d="M178.522 136.707V138.926H175.509V148.079H172.739V138.926H169.725V136.707H178.522Z" fill="#263238"/>
<path d="M186.992 146.07H182.747L182.067 148.079H179.167L183.282 136.707H186.489L190.604 148.079H187.672L186.992 146.07ZM186.279 143.932L184.869 139.768L183.476 143.932H186.279Z" fill="#263238"/>
<path d="M133.757 154.832V157.051H129.124V159.449H132.591V161.603H129.124V166.204H126.354V154.832H133.757Z" fill="#263238"/>
<path d="M140.591 166.317C139.522 166.317 138.539 166.069 137.643 165.572C136.757 165.075 136.05 164.384 135.521 163.499C135.002 162.602 134.743 161.598 134.743 160.485C134.743 159.373 135.002 158.374 135.521 157.488C136.05 156.603 136.757 155.912 137.643 155.415C138.539 154.918 139.522 154.67 140.591 154.67C141.66 154.67 142.638 154.918 143.523 155.415C144.42 155.912 145.122 156.603 145.629 157.488C146.148 158.374 146.407 159.373 146.407 160.485C146.407 161.598 146.148 162.602 145.629 163.499C145.111 164.384 144.409 165.075 143.523 165.572C142.638 166.069 141.66 166.317 140.591 166.317ZM140.591 163.79C141.498 163.79 142.222 163.488 142.762 162.883C143.313 162.278 143.588 161.479 143.588 160.485C143.588 159.481 143.313 158.682 142.762 158.088C142.222 157.483 141.498 157.181 140.591 157.181C139.673 157.181 138.939 157.478 138.388 158.072C137.848 158.666 137.578 159.47 137.578 160.485C137.578 161.49 137.848 162.294 138.388 162.899C138.939 163.493 139.673 163.79 140.591 163.79Z" fill="#263238"/>
<path d="M150.67 154.832V161.636C150.67 162.316 150.837 162.84 151.172 163.207C151.507 163.574 151.998 163.758 152.646 163.758C153.294 163.758 153.791 163.574 154.137 163.207C154.482 162.84 154.655 162.316 154.655 161.636V154.832H157.425V161.619C157.425 162.635 157.209 163.493 156.777 164.195C156.345 164.897 155.762 165.426 155.028 165.783C154.304 166.139 153.494 166.317 152.598 166.317C151.701 166.317 150.897 166.145 150.184 165.799C149.482 165.443 148.926 164.913 148.515 164.211C148.105 163.499 147.9 162.635 147.9 161.619V154.832H150.67Z" fill="#263238"/>
<path d="M169.544 166.204H166.774L162.141 159.189V166.204H159.371V154.832H162.141L166.774 161.879V154.832H169.544V166.204Z" fill="#263238"/>
<path d="M175.813 154.832C177.012 154.832 178.059 155.069 178.956 155.544C179.852 156.02 180.543 156.689 181.029 157.553C181.526 158.406 181.774 159.395 181.774 160.518C181.774 161.63 181.526 162.618 181.029 163.482C180.543 164.346 179.847 165.016 178.939 165.491C178.043 165.966 177.001 166.204 175.813 166.204H171.552V154.832H175.813ZM175.635 163.806C176.682 163.806 177.498 163.52 178.081 162.948C178.664 162.375 178.956 161.565 178.956 160.518C178.956 159.47 178.664 158.655 178.081 158.072C177.498 157.488 176.682 157.197 175.635 157.197H174.322V163.806H175.635Z" fill="#263238"/>
<path d="M190.149 172.356H177.982C177.743 172.356 177.549 172.162 177.549 171.923C177.549 171.684 177.743 171.49 177.982 171.49H190.149C190.388 171.49 190.581 171.684 190.581 171.923C190.581 172.162 190.388 172.356 190.149 172.356Z" fill="#263238"/>
<path d="M172.941 172.356H118.595C118.356 172.356 118.162 172.162 118.162 171.923C118.162 171.684 118.356 171.49 118.595 171.49H172.941C173.181 171.49 173.374 171.684 173.374 171.923C173.374 172.162 173.181 172.356 172.941 172.356Z" fill="#263238"/>
<path d="M138.852 107.375C138.724 104.554 137.12 102.321 135.268 102.388C133.416 102.455 132.019 104.796 132.147 107.616C132.274 110.437 133.879 112.67 135.731 112.603C137.582 112.537 138.979 110.196 138.852 107.375Z" fill="#263238"/>
<path d="M177.972 106.494C177.845 103.673 176.24 101.44 174.388 101.507C172.537 101.573 171.139 103.914 171.267 106.735C171.395 109.557 172.999 111.789 174.851 111.722C176.702 111.656 178.1 109.314 177.972 106.494Z" fill="#263238"/>
<path d="M148.617 118.938C158.875 115.276 166.8 119.578 167.167 119.783C167.569 120.007 167.711 120.51 167.487 120.908C167.262 121.305 166.753 121.446 166.351 121.224C166.259 121.173 157.024 116.195 146 121.882C145.59 122.09 145.087 121.935 144.873 121.53C144.659 121.125 144.817 120.626 145.225 120.415C146.379 119.82 147.512 119.332 148.617 118.938Z" fill="#263238"/>
<path d="M133.255 80.907C133.532 80.9134 133.812 80.9892 134.069 81.1409C134.862 81.61 135.129 82.6267 134.664 83.4128C130.006 91.2834 122.326 91.6728 122.002 91.6851C121.081 91.7221 120.302 91.0093 120.258 90.0949C120.214 89.1839 120.919 88.4153 121.834 88.3745C122.087 88.3615 128.071 87.9954 131.788 81.7144C132.103 81.1824 132.673 80.8933 133.255 80.907Z" fill="#263238"/>
<path d="M172.401 79.9561C172.93 79.8537 173.501 80.0086 173.912 80.4188C179.116 85.6229 185.016 84.5628 185.264 84.5154C186.164 84.3431 187.045 84.9243 187.229 85.8179C187.414 86.7115 186.842 87.5792 185.944 87.7613C185.618 87.8196 178.074 89.2633 171.553 82.7438C170.902 82.0926 170.902 81.0448 171.553 80.4026C171.794 80.1648 172.09 80.0157 172.401 79.9561Z" fill="#263238"/>
<path opacity="0.2" d="M208.473 98.0913L203.741 98.5351C202.044 98.6945 200.495 97.567 200.124 95.9043L193.559 66.4974C193.163 64.7219 194.242 62.9509 196.002 62.4888L208.696 59.1575L208.473 98.0913Z" fill="white"/>
<path opacity="0.2" d="M135.442 74.0083C132.144 65.0024 128.846 50.5974 132.329 37.2583L98.5908 70.9964C108.124 74.1865 123.326 75.5752 135.442 74.0083Z" fill="black"/>
<path d="M132.329 70.9972C128.63 60.0725 130.138 45.2204 132.329 37.259L98.5908 70.9972C108.805 72.8563 120.214 72.564 132.329 70.9972Z" fill="white"/>
<path d="M114.019 72.8627C108.387 72.8627 103.237 72.4305 98.4874 71.566C98.2755 71.5278 98.1032 71.3749 98.039 71.1695C97.9749 70.9647 98.03 70.7405 98.1822 70.5889L131.92 36.8507C132.106 36.6648 132.393 36.6278 132.62 36.7594C132.847 36.8916 132.957 37.1598 132.887 37.4126C130.848 44.8257 129.162 59.8366 132.877 70.8124C132.933 70.9764 132.912 71.1565 132.82 71.3043C132.728 71.4514 132.576 71.5492 132.404 71.5712C125.744 72.4318 119.641 72.8627 114.019 72.8627ZM99.788 70.618C108.751 72.1032 119.166 72.0682 131.563 70.5118C128.513 60.8352 129.202 48.0249 131.256 39.1505L99.788 70.618Z" fill="#263238"/>
</svg>
