<svg width="683" height="845" viewBox="0 0 683 845" fill="none" xmlns="http://www.w3.org/2000/svg">
<path d="M338.651 322.791L443.874 0L547.603 306.783L514.162 321.414L443.874 179.073L379.773 377.217H170.535L338.047 499.979L275.154 698.33L371.15 632.323L404.809 641.942L169.989 844.359L273.944 520.539L0 322.791H338.651Z" fill="url(#paint0_linear_42_46)"/>
<path d="M275.154 698.33L371.149 632.323L404.808 641.942L169.989 844.359L275.154 698.33Z" fill="url(#paint1_linear_42_46)"/>
<path d="M170.535 377.217L338.047 499.979L273.944 520.539L0 322.791L170.535 377.217Z" fill="url(#paint2_linear_42_46)"/>
<path d="M337.875 322.791L443.099 0L443.525 179.288L378.996 377.217L337.875 322.791Z" fill="url(#paint3_linear_42_46)"/>
<path d="M674.833 199.179C668.973 199.179 668.973 194.784 668.973 194.784V187.834H667.508H666.042V194.784C666.042 194.784 666.042 199.179 660.182 199.179H652.856V201.786H660.182C660.182 201.786 666.042 202.11 666.042 205.04V213.632H667.508H668.973V205.04C668.973 202.11 674.833 201.786 674.833 201.786H682.159V199.179H674.833Z" fill="white"/>
<path d="M267.768 229.582C251.185 229.582 251.185 217.144 251.185 217.144V197.476H247.038H242.891V217.144C242.891 217.144 242.891 229.582 226.309 229.582H205.579V236.958H226.309C226.309 236.958 242.891 237.873 242.891 246.164V270.481H247.038H251.185V246.164C251.185 237.873 267.768 236.958 267.768 236.958H288.497V229.582H267.768Z" fill="white"/>
<path d="M599.973 142.458C579.588 142.458 579.588 127.169 579.588 127.169V102.993H574.492H569.397V127.169C569.397 127.169 569.397 142.458 549.012 142.458H523.532V151.525H549.012C549.012 151.525 569.397 152.65 569.397 162.843V192.731H574.492H579.588V162.843C579.588 152.652 599.973 151.525 599.973 151.525H625.453V142.458H599.973Z" fill="url(#paint4_linear_42_46)"/>
<path d="M340.735 156.707C331.864 156.707 331.864 150.054 331.864 150.054V139.534H329.647H327.429V150.054C327.429 150.054 327.429 156.707 318.559 156.707H307.471V160.653H318.559C318.559 160.653 327.429 161.142 327.429 165.577V178.584H329.647H331.864V165.577C331.864 161.142 340.735 160.653 340.735 160.653H351.823V156.707H340.735Z" fill="url(#paint5_linear_42_46)"/>
<path d="M627.025 267.047C615.402 267.047 615.402 258.329 615.402 258.329V244.545H612.497H609.592V258.329C609.592 258.329 609.592 267.047 597.969 267.047H583.438V272.218H597.969C597.969 272.218 609.592 272.859 609.592 278.672V295.714H612.497H615.402V278.672C615.402 272.859 627.025 272.218 627.025 272.218H641.555V267.047H627.025Z" fill="white"/>
<path d="M611.489 488.542V338.457L551.201 323.105L372.343 398.864V617.548L551.201 667.33L611.489 651.602V511.466L480.926 510.864L480.587 547.388L498.208 549.905V532.283L546.038 534.802V610.321L401.793 592.699L402.76 419.004L546.038 383.761V489.2L611.489 488.542Z" fill="white"/>
<path d="M523.091 491.606C527.749 491.606 531.525 488.373 531.525 484.385C531.525 480.396 527.749 477.163 523.091 477.163C518.433 477.163 514.657 480.396 514.657 484.385C514.657 488.373 518.433 491.606 523.091 491.606Z" fill="white"/>
<defs>
<linearGradient id="paint0_linear_42_46" x1="174.231" y1="109.908" x2="459.659" y2="781.58" gradientUnits="userSpaceOnUse">
<stop stop-color="#F0E536"/>
<stop offset="1" stop-color="#BA8B24"/>
</linearGradient>
<linearGradient id="paint1_linear_42_46" x1="165.149" y1="818.901" x2="377.555" y2="642.988" gradientUnits="userSpaceOnUse">
<stop stop-color="#F0E536"/>
<stop offset="1" stop-color="#BA8B24"/>
</linearGradient>
<linearGradient id="paint2_linear_42_46" x1="-94.5427" y1="210.573" x2="276.645" y2="493.382" gradientUnits="userSpaceOnUse">
<stop stop-color="#F0E536"/>
<stop offset="1" stop-color="#BA8B24"/>
</linearGradient>
<linearGradient id="paint3_linear_42_46" x1="327.205" y1="454.437" x2="423.565" y2="145.762" gradientUnits="userSpaceOnUse">
<stop stop-color="#F0E536"/>
<stop offset="1" stop-color="#BA8B24"/>
</linearGradient>
<linearGradient id="paint4_linear_42_46" x1="523.531" y1="147.863" x2="625.454" y2="147.863" gradientUnits="userSpaceOnUse">
<stop stop-color="#F0E536"/>
<stop offset="1" stop-color="#BA8B24"/>
</linearGradient>
<linearGradient id="paint5_linear_42_46" x1="307.47" y1="159.059" x2="351.822" y2="159.059" gradientUnits="userSpaceOnUse">
<stop stop-color="#F0E536"/>
<stop offset="1" stop-color="#BA8B24"/>
</linearGradient>
</defs>
</svg>
