<svg width="20" height="21" viewBox="0 0 20 21" fill="none" xmlns="http://www.w3.org/2000/svg">
<path fill-rule="evenodd" clip-rule="evenodd" d="M12.0833 15.1777H12.9167C13.1468 15.1777 13.3333 15.3643 13.3333 15.5944V18.5111C13.3333 19.4316 12.5871 20.1777 11.6667 20.1777H1.66668C0.746209 20.1777 0 19.4316 0 18.5111V1.84441C0 0.923945 0.746209 0.177734 1.66668 0.177734H11.6667C12.5871 0.177734 13.3333 0.923945 13.3333 1.84441V4.76109C13.3333 4.99121 13.1468 5.17777 12.9167 5.17777H12.0833C11.8532 5.17777 11.6667 4.99121 11.6667 4.76109V1.84441H1.66668V18.5111H11.6667V15.5944C11.6667 15.3643 11.8532 15.1777 12.0833 15.1777ZM14.8803 5.24239L19.8653 9.8256C19.9513 9.90454 20 10.016 20 10.1328C20 10.2496 19.9513 10.3611 19.8653 10.44L14.8803 15.0232C14.8021 15.0948 14.7015 15.1327 14.5996 15.1327C14.5432 15.1327 14.486 15.1213 14.4325 15.0973C14.2816 15.031 14.1842 14.8813 14.1842 14.7161V13.8828C14.1842 13.7648 14.2341 13.6521 14.3217 13.5731L17.2095 10.9662H5.46047C5.23085 10.9662 5.04504 10.7798 5.04504 10.5495V9.71618C5.04504 9.48588 5.23085 9.29951 5.46047 9.29951H17.2095L14.3217 6.69255C14.2341 6.61361 14.1842 6.50091 14.1842 6.38291V5.54957C14.1842 5.38438 14.2816 5.23466 14.4325 5.16833C14.5822 5.10079 14.7586 5.1313 14.8803 5.24239Z" fill="#474747"/>
</svg>
