<svg width="18" height="21" viewBox="0 0 18 21" fill="none" xmlns="http://www.w3.org/2000/svg">
<path fill-rule="evenodd" clip-rule="evenodd" d="M3.1158 18.6152H5.72097C6.15118 18.6152 6.49992 18.965 6.49992 19.3965C6.49992 19.828 6.15118 20.1777 5.72097 20.1777H3.1158C1.39775 20.1777 0 18.7759 0 17.0527V3.30273C0 1.57961 1.39775 0.177734 3.1158 0.177734H12.6926C14.4106 0.177734 15.8084 1.57961 15.8084 3.30273V8.10742C15.8084 8.53891 15.4596 8.88867 15.0294 8.88867C14.5992 8.88867 14.2505 8.53891 14.2505 8.10742V3.30273C14.2505 2.44117 13.5516 1.74023 12.6926 1.74023H3.1158C2.25678 1.74023 1.5579 2.44117 1.5579 3.30273V17.0527C1.5579 17.9143 2.25678 18.6152 3.1158 18.6152ZM12.6946 8.74061C12.6946 8.31067 12.3459 7.96217 11.9157 7.96217H3.8927C3.4625 7.96217 3.11377 8.31067 3.11377 8.74061C3.11377 9.17054 3.4625 9.51905 3.8927 9.51905H11.9157C12.3459 9.51905 12.6946 9.17054 12.6946 8.74061ZM3.89713 11.0759C3.46448 11.0759 3.11377 11.4244 3.11377 11.8544C3.11377 12.2843 3.46448 12.6328 3.89713 12.6328H8.79748C9.23013 12.6328 9.58084 12.2843 9.58084 11.8544C9.58084 11.4244 9.23013 11.0759 8.79748 11.0759H3.89713ZM17.278 11.5195C16.3633 10.6089 14.875 10.6088 13.9609 11.5189L9.66765 15.7836C9.57647 15.8742 9.50922 15.9857 9.47176 16.1084L8.53677 19.1729C8.45388 19.4446 8.5261 19.7396 8.72527 19.9429C8.87448 20.0951 9.07717 20.1777 9.28506 20.1777C9.35462 20.1777 9.42485 20.1685 9.49378 20.1494L12.6501 19.279C12.78 19.2432 12.8984 19.1746 12.9938 19.0797L17.2781 14.8225C18.1928 13.9119 18.1928 12.4302 17.278 11.5195ZM12.0344 17.8331L10.4465 18.2711L10.9112 16.7479L13.8081 13.8703L14.9142 14.9715L12.0344 17.8331ZM16.0212 13.8716L16.1727 13.7211C16.4771 13.418 16.4771 12.9241 16.1722 12.6206C15.8673 12.317 15.3712 12.317 15.0663 12.6206L14.9153 12.7706L16.0212 13.8716ZM3.8927 4.84839H11.9157C12.3459 4.84839 12.6946 5.1969 12.6946 5.62684C12.6946 6.05677 12.3459 6.40528 11.9157 6.40528H3.8927C3.4625 6.40528 3.11377 6.05677 3.11377 5.62684C3.11377 5.1969 3.4625 4.84839 3.8927 4.84839Z" fill="#474747"/>
</svg>
