<svg width="16" height="20" viewBox="0 0 16 20" fill="none" xmlns="http://www.w3.org/2000/svg">
<path d="M7.83445 9.63104C8.45815 9.63104 9.08184 9.50875 9.68108 9.25194C11.6867 8.40811 12.824 6.3658 12.5183 4.18897C12.2615 2.3301 10.8429 0.764742 9.00846 0.312255C8.91063 0.287796 8.81279 0.275571 8.72718 0.263342C8.61712 0.251112 8.50705 0.226653 8.42145 0.202195L8.3603 0.177734H7.1496L7.12514 0.226647C5.35188 0.520153 4.08002 1.5352 3.4441 3.17393C2.74702 4.98388 3.07722 6.69599 4.39799 8.13906C5.30297 9.11741 6.55036 9.63104 7.83445 9.63104ZM7.83445 7.93116C7.02731 7.93116 6.26908 7.62543 5.70653 7.05065C5.13175 6.47587 4.81378 5.71764 4.81378 4.89827C4.80155 3.19839 6.13456 1.86539 7.83445 1.85316H7.84667C8.65381 1.85316 9.41203 2.17112 9.98681 2.73367C10.5616 3.30845 10.8796 4.06668 10.8796 4.88605C10.8796 6.58593 9.54656 7.9067 7.84667 7.91893C7.83444 7.93116 7.83445 7.93116 7.83445 7.93116Z" fill="#474747"/>
<path d="M15.8446 14.1803C15.6978 12.8718 15.4166 11.9179 14.9641 11.0863C14.3281 9.93674 13.3743 9.25189 12.1391 9.08068C11.7722 9.03176 11.2341 9.0073 10.7205 9.38641C10.5615 9.50871 10.378 9.61877 10.1946 9.72883L10.0968 9.78998C8.66595 10.6705 7.27179 10.6705 5.84095 9.78998C5.6942 9.70437 5.54745 9.60654 5.4007 9.50871C5.2784 9.43533 5.15611 9.34972 5.03382 9.27634C4.85038 9.16628 4.60578 9.03176 4.31228 9.04399C3.62743 9.05622 3.04043 9.20297 2.50234 9.49648C1.68297 9.93674 1.09596 10.646 0.680159 11.6733C0.117608 13.0797 -0.10253 14.6206 0.0442225 16.2593C0.117599 17.1765 0.570095 17.947 1.35278 18.5095C1.96424 18.9498 2.698 19.1577 3.59074 19.1577H9.03282H12.2369C12.4815 19.1577 12.6894 19.1455 12.8973 19.121C14.6706 18.9376 15.8813 17.6168 15.918 15.8435C15.918 15.2443 15.8935 14.694 15.8446 14.1803ZM14.2181 15.6723C14.2181 16.7607 13.5822 17.4211 12.506 17.4333C11.4542 17.4456 10.378 17.4456 9.33855 17.4456C8.88606 17.4456 8.42135 17.4456 7.96887 17.4456H3.60298C3.08935 17.4456 2.72246 17.36 2.41673 17.1643C1.96424 16.8708 1.73189 16.4428 1.71966 15.8802C1.68297 14.4738 1.84194 13.361 2.23328 12.3826C2.47787 11.7711 2.77137 11.3553 3.16271 11.0741C3.44399 10.8784 3.78641 10.7561 4.20221 10.7316C4.21444 10.7316 4.21445 10.7439 4.22668 10.7439L4.25113 10.7561C4.39789 10.8417 4.53241 10.9273 4.67916 11.0252C4.93598 11.1964 5.19279 11.3676 5.4863 11.5021C6.59917 12.0524 7.66314 12.2359 8.75155 12.0646C9.54646 11.9424 10.2925 11.6733 10.9528 11.2575C11.2219 11.0863 11.4787 10.9273 11.7355 10.7561C11.7478 10.7439 11.7722 10.7439 11.8089 10.7439C12.5671 10.7928 13.1052 11.1719 13.521 11.9301C13.8879 12.615 14.0469 13.3732 14.1447 14.0213C14.2059 14.6084 14.2181 15.1831 14.2181 15.6723Z" fill="#474747"/>
</svg>
