<svg width="33" height="33" viewBox="0 0 33 33" fill="none" xmlns="http://www.w3.org/2000/svg">
<path id="Union" fill-rule="evenodd" clip-rule="evenodd" d="M15.5759 0.210901C15.4064 0.295603 15.254 0.414185 15.1185 0.549707C14.4646 1.20359 13.8101 1.85622 13.1558 2.50862C11.4115 4.24781 9.66895 5.98538 7.94426 7.74086C6.93632 8.76575 7.36829 10.409 8.72351 10.7732C9.42654 10.968 10.0279 10.7647 10.5446 10.248L14.3138 6.47881C14.3562 6.43645 14.3985 6.39622 14.4409 6.35599C14.4832 6.31575 14.5256 6.27552 14.5679 6.23317C14.6392 6.3239 14.6312 6.41464 14.6234 6.50158C14.6211 6.52827 14.6187 6.55459 14.6187 6.58045C14.6187 7.94111 14.6198 9.3023 14.6209 10.6638C14.624 14.7518 14.6272 18.8422 14.6018 22.9278C14.5933 24.0713 14.9067 24.9014 16.0417 25.291H16.7363C16.7659 25.2317 16.8163 25.2305 16.8671 25.2293C16.8889 25.2288 16.9108 25.2283 16.9311 25.2232C17.6341 25.0199 18.1508 24.3847 18.2101 23.6478C18.2185 23.4953 18.2186 23.3344 18.2186 23.1734V6.60586V6.18235C18.354 6.30083 18.4302 6.37703 18.5063 6.4532L18.5065 6.4534C18.9328 6.87967 19.3581 7.30687 19.7834 7.73408C20.6343 8.58868 21.4851 9.44329 22.3435 10.2904C23.3853 11.3153 25.054 10.8409 25.3928 9.44335C25.5452 8.79962 25.3758 8.23212 24.91 7.75779C24.4907 7.3258 24.0618 6.89856 23.6342 6.47252C23.4917 6.33054 23.3493 6.18868 23.2075 6.04683C21.4033 4.23422 19.5907 2.42161 17.7781 0.617474C17.1259 -0.0347271 16.3128 -0.170254 15.5759 0.210901ZM30.6359 21.6923C31.5337 21.5653 32.3214 22.1074 32.6094 23.056C32.6152 23.0734 32.6329 23.0868 32.6489 23.099C32.6563 23.1046 32.6633 23.11 32.6687 23.1153V26.1646C32.5912 26.1904 32.5925 26.2457 32.5937 26.3006C32.5941 26.3177 32.5945 26.3348 32.5925 26.3509C32.008 29.4171 30.2208 31.4076 27.2139 32.2885C27.0018 32.3483 26.7826 32.3907 26.561 32.4335C26.4375 32.4574 26.3133 32.4814 26.189 32.5087H6.50445C6.47864 32.4313 6.42331 32.4325 6.36846 32.4337C6.35133 32.4341 6.33424 32.4345 6.31812 32.4325C3.2604 31.848 1.26991 30.0778 0.380541 27.0878C0.343733 26.9674 0.324111 26.8429 0.304439 26.7182C0.274318 26.5272 0.244082 26.3354 0.151852 26.1561V23.0476C0.225325 23.0169 0.241261 22.9509 0.257249 22.8847C0.263378 22.8593 0.269515 22.8339 0.278904 22.8104C0.609239 21.9973 1.43083 21.5483 2.30326 21.7093C3.11639 21.8533 3.73472 22.5732 3.76013 23.4287C3.77283 23.8734 3.77124 24.3181 3.76966 24.7627C3.76913 24.911 3.7686 25.0592 3.7686 25.2074C3.78554 27.3165 5.3271 28.892 7.42769 28.892C13.4161 28.9004 19.4045 28.9004 25.3929 28.892C27.4935 28.892 29.035 27.325 29.052 25.2159V23.5642C29.0604 22.5648 29.6787 21.8363 30.6359 21.6923Z" fill="#194BFB"/>
</svg>
